<svg id="Layer_1" data-name="Layer 1" xmlns="http://www.w3.org/2000/svg" viewBox="0 0 36.04 45"><defs><style>.cls-1{fill:#f25151;}.cls-2{fill:#e04b4b;}.cls-3{fill:#39bc77;}.cls-4{fill:#92d855;}.cls-5,.cls-6{fill:#ff8080;}.cls-6,.cls-8{font-size:6px;font-family:AmericanTypewriter, American Typewriter;}.cls-7{letter-spacing:-0.01em;}.cls-8{fill:#fff;}</style></defs><title>logo</title><path class="cls-1" d="M26.1,54a5.92,5.92,0,0,0,2.9-.7,7.23,7.23,0,0,1,6.1,0A7.27,7.27,0,0,0,38,54c6.8,0,11.8-11.4,11.8-19.7S44.8,21.2,38,21.2a12.26,12.26,0,0,0-3.9.6,7.15,7.15,0,0,1-4.1,0,12.26,12.26,0,0,0-3.9-.6c-6.8,0-11.8,4.8-11.8,13.1S19.3,54,26.1,54Z" transform="translate(-13.76 -9)"/><ellipse class="cls-2" cx="17.54" cy="14.5" rx="4" ry="1.5"/><path class="cls-3" d="M22.3,12.7s4.7.1,7.3,3,2.2,7.5,2.2,7.5-4.7-.1-7.3-3S22.3,12.7,22.3,12.7Z" transform="translate(-13.76 -9)"/><path class="cls-4" d="M41.6,9s1.2,5.9-1.8,9.9-8.9,4.8-8.9,4.8-1.2-5.9,1.8-9.9S41.6,9,41.6,9Z" transform="translate(-13.76 -9)"/><ellipse class="cls-5" cx="41.83" cy="28.49" rx="3" ry="4" transform="translate(-21.66 28.93) rotate(-45)"/><text class="cls-6" transform="translate(0.54 25.75) rotate(14.18)">Le cli<tspan class="cls-7" x="15.26" y="0">c</tspan><tspan x="18.25" y="0">k bait</tspan></text><text class="cls-8" transform="translate(0.54 24.77) rotate(14.18)">Le cli<tspan class="cls-7" x="15.26" y="0">c</tspan><tspan x="18.25" y="0">k bait</tspan></text></svg>